TITLE ""
FILE "Disc2Track18.mp3" MP3
  TRACK 01 AUDIO
    TITLE "Disc2Track18_01"
    INDEX 01 00:00:00
  TRACK 02 AUDIO
    TITLE "Disc2Track18_02"
    INDEX 01 00:01:22
  TRACK 03 AUDIO
    TITLE "Disc2Track18_03"
    INDEX 01 00:03:07
  TRACK 04 AUDIO
    TITLE "Disc2Track18_04"
    INDEX 01 00:04:37
  TRACK 05 AUDIO
    TITLE "Disc2Track18_05"
    INDEX 01 00:05:02
  TRACK 06 AUDIO
    TITLE "Disc2Track18_06"
    INDEX 01 00:06:46
  TRACK 07 AUDIO
    TITLE "Disc2Track18_07"
    INDEX 01 00:08:55
  TRACK 08 AUDIO
    TITLE "Disc2Track18_08"
    INDEX 01 00:10:24
  TRACK 09 AUDIO
    TITLE "Disc2Track18_09"
    INDEX 01 00:10:64
  TRACK 10 AUDIO
    TITLE "Disc2Track18_10"
    INDEX 01 00:12:21
  TRACK 11 AUDIO
    TITLE "Disc2Track18_11"
    INDEX 01 00:13:11
  TRACK 12 AUDIO
    TITLE "Disc2Track18_12"
    INDEX 01 00:14:42
  TRACK 13 AUDIO
    TITLE "Disc2Track18_13"
    INDEX 01 00:18:53
  TRACK 14 AUDIO
    TITLE "Disc2Track18_14"
    INDEX 01 00:19:15
  TRACK 15 AUDIO
    TITLE "Disc2Track18_15"
    INDEX 01 00:20:66
  TRACK 16 AUDIO
    TITLE "Disc2Track18_16"
    INDEX 01 00:22:02
  TRACK 17 AUDIO
    TITLE "Disc2Track18_17"
    INDEX 01 00:23:56
  TRACK 18 AUDIO
    TITLE "Disc2Track18_18"
    INDEX 01 00:24:17
  TRACK 19 AUDIO
    TITLE "Disc2Track18_19"
    INDEX 01 00:25:42
  TRACK 20 AUDIO
    TITLE "Disc2Track18_20"
    INDEX 01 00:28:36
  TRACK 21 AUDIO
    TITLE "Disc2Track18_21"
    INDEX 01 00:29:63
  TRACK 22 AUDIO
    TITLE "Disc2Track18_22"
    INDEX 01 00:30:27
  TRACK 23 AUDIO
    TITLE "Disc2Track18_23"
    INDEX 01 00:31:66
  TRACK 24 AUDIO
    TITLE "Disc2Track18_24"
    INDEX 01 00:33:12
  TRACK 25 AUDIO
    TITLE "Disc2Track18_25"
    INDEX 01 00:34:52
  TRACK 26 AUDIO
    TITLE "Disc2Track18_26"
    INDEX 01 00:35:18
  TRACK 27 AUDIO
    TITLE "Disc2Track18_27"
    INDEX 01 00:36:43
  TRACK 28 AUDIO
    TITLE "Disc2Track18_28"
    INDEX 01 00:37:49
  TRACK 29 AUDIO
    TITLE "Disc2Track18_29"
    INDEX 01 00:38:72
  TRACK 30 AUDIO
    TITLE "Disc2Track18_30"
    INDEX 01 00:43:02
  TRACK 31 AUDIO
    TITLE "Disc2Track18_31"
    INDEX 01 00:43:34
  TRACK 32 AUDIO
    TITLE "Disc2Track18_32"
    INDEX 01 00:44:74
  TRACK 33 AUDIO
    TITLE "Disc2Track18_33"
    INDEX 01 00:46:67
  TRACK 34 AUDIO
    TITLE "Disc2Track18_34"
    INDEX 01 00:48:31
  TRACK 35 AUDIO
    TITLE "Disc2Track18_35"
    INDEX 01 00:52:19
  TRACK 36 AUDIO
    TITLE "Disc2Track18_36"
    INDEX 01 00:52:48
  TRACK 37 AUDIO
    TITLE "Disc2Track18_37"
    INDEX 01 00:54:18
  TRACK 38 AUDIO
    TITLE "Disc2Track18_38"
    INDEX 01 00:56:36
  TRACK 39 AUDIO
    TITLE "Disc2Track18_39"
    INDEX 01 00:58:02
  TRACK 40 AUDIO
    TITLE "Disc2Track18_40"
    INDEX 01 01:00:24
  TRACK 41 AUDIO
    TITLE "Disc2Track18_41"
    INDEX 01 01:00:56
  TRACK 42 AUDIO
    TITLE "Disc2Track18_42"
    INDEX 01 01:02:04
  TRACK 43 AUDIO
    TITLE "Disc2Track18_43"
    INDEX 01 01:04:49
  TRACK 44 AUDIO
    TITLE "Disc2Track18_44"
    INDEX 01 01:05:69
  TRACK 45 AUDIO
    TITLE "Disc2Track18_45"
    INDEX 01 01:09:27
  TRACK 46 AUDIO
    TITLE "Disc2Track18_46"
    INDEX 01 01:09:58
  TRACK 47 AUDIO
    TITLE "Disc2Track18_47"
    INDEX 01 01:11:22
  TRACK 48 AUDIO
    TITLE "Disc2Track18_48"
    INDEX 01 01:16:60
  TRACK 49 AUDIO
    TITLE "Disc2Track18_49"
    INDEX 01 01:18:22
  TRACK 50 AUDIO
    TITLE "Disc2Track18_50"
    INDEX 01 01:21:30
